<svg width="1024" height="1024" viewBox="0 0 1024 1024" fill="none" xmlns="http://www.w3.org/2000/svg" role="img" aria-label="Manifold">
  <defs>
    <linearGradient id="tile" x1="0" y1="0" x2="0" y2="1"><stop offset="0" stop-color="#15151b"/><stop offset="1" stop-color="#0b0b0e"/></linearGradient>
    <radialGradient id="glow" cx="0.5" cy="0.16" r="0.62"><stop offset="0" stop-color="#2dd4bf" stop-opacity="0.14"/><stop offset="1" stop-color="#2dd4bf" stop-opacity="0"/></radialGradient>
    <radialGradient id="vp" cx="0.5" cy="0.5" r="0.36"><stop offset="0" stop-color="#2dd4bf" stop-opacity="0.22"/><stop offset="1" stop-color="#2dd4bf" stop-opacity="0"/></radialGradient>
    <radialGradient id="fade" cx="0.5" cy="0.5" r="0.66"><stop offset="0" stop-color="#fff"/><stop offset="0.6" stop-color="#cfcfcf"/><stop offset="1" stop-color="#000"/></radialGradient>
    <mask id="gridfade"><rect width="1024" height="1024" fill="url(#fade)"/></mask>
    <clipPath id="round"><rect width="1024" height="1024" rx="224"/></clipPath>
  </defs>
  <rect width="1024" height="1024" rx="224" fill="url(#tile)"/>
  <g clip-path="url(#round)">
    <g mask="url(#gridfade)">
    <polygon points="96.0,96.0 928.0,96.0 928.0,928.0 96.0,928.0" fill="none" stroke="#2dd4bf" stroke-opacity="0.140" stroke-width="1.8"/>
    <polygon points="254.1,254.1 769.9,254.1 769.9,769.9 254.1,769.9" fill="none" stroke="#2dd4bf" stroke-opacity="0.216" stroke-width="1.8"/>
    <polygon points="352.3,352.3 671.7,352.3 671.7,671.7 352.3,671.7" fill="none" stroke="#2dd4bf" stroke-opacity="0.263" stroke-width="1.8"/>
    <polygon points="413.0,413.0 611.0,413.0 611.0,611.0 413.0,611.0" fill="none" stroke="#2dd4bf" stroke-opacity="0.292" stroke-width="1.8"/>
    <polygon points="450.4,450.4 573.6,450.4 573.6,573.6 450.4,573.6" fill="none" stroke="#2dd4bf" stroke-opacity="0.310" stroke-width="1.8"/>
    <polygon points="473.7,473.7 550.3,473.7 550.3,550.3 473.7,550.3" fill="none" stroke="#2dd4bf" stroke-opacity="0.322" stroke-width="1.8"/>
    <line x1="96.0" y1="96.0" x2="512" y2="512" stroke="#2dd4bf" stroke-opacity="0.17" stroke-width="1.6"/>
    <line x1="304.0" y1="96.0" x2="512" y2="512" stroke="#2dd4bf" stroke-opacity="0.17" stroke-width="1.6"/>
    <line x1="512.0" y1="96.0" x2="512" y2="512" stroke="#2dd4bf" stroke-opacity="0.17" stroke-width="1.6"/>
    <line x1="720.0" y1="96.0" x2="512" y2="512" stroke="#2dd4bf" stroke-opacity="0.17" stroke-width="1.6"/>
    <line x1="928.0" y1="96.0" x2="512" y2="512" stroke="#2dd4bf" stroke-opacity="0.17" stroke-width="1.6"/>
    <line x1="928.0" y1="304.0" x2="512" y2="512" stroke="#2dd4bf" stroke-opacity="0.17" stroke-width="1.6"/>
    <line x1="928.0" y1="512.0" x2="512" y2="512" stroke="#2dd4bf" stroke-opacity="0.17" stroke-width="1.6"/>
    <line x1="928.0" y1="720.0" x2="512" y2="512" stroke="#2dd4bf" stroke-opacity="0.17" stroke-width="1.6"/>
    <line x1="928.0" y1="928.0" x2="512" y2="512" stroke="#2dd4bf" stroke-opacity="0.17" stroke-width="1.6"/>
    <line x1="720.0" y1="928.0" x2="512" y2="512" stroke="#2dd4bf" stroke-opacity="0.17" stroke-width="1.6"/>
    <line x1="512.0" y1="928.0" x2="512" y2="512" stroke="#2dd4bf" stroke-opacity="0.17" stroke-width="1.6"/>
    <line x1="304.0" y1="928.0" x2="512" y2="512" stroke="#2dd4bf" stroke-opacity="0.17" stroke-width="1.6"/>
    <line x1="96.0" y1="928.0" x2="512" y2="512" stroke="#2dd4bf" stroke-opacity="0.17" stroke-width="1.6"/>
    <line x1="96.0" y1="720.0" x2="512" y2="512" stroke="#2dd4bf" stroke-opacity="0.17" stroke-width="1.6"/>
    <line x1="96.0" y1="512.0" x2="512" y2="512" stroke="#2dd4bf" stroke-opacity="0.17" stroke-width="1.6"/>
    <line x1="96.0" y1="304.0" x2="512" y2="512" stroke="#2dd4bf" stroke-opacity="0.17" stroke-width="1.6"/>
    </g>
    <rect width="1024" height="1024" fill="url(#vp)"/>
  </g>
  <rect width="1024" height="1024" rx="224" fill="url(#glow)"/>
  <g transform="translate(128.00 128.00) scale(12)"><g transform="translate(6.483 52.0) scale(0.02679 -0.02679)"><path d="M86 1493H438L616 838L793 1493H1147V0H893V1196L735 543H500L340 1196V0H86Z" fill="#2dd4bf"/></g><rect x="42.21" y="9.0" width="13.0" height="46.0" fill="#2dd4bf"/></g>
</svg>
